<svg width="1000" height="1000" viewBox="0 0 1000 1000" fill="none" xmlns="http://www.w3.org/2000/svg">
<rect width="1000" height="1000" fill="white"/>
<circle cx="125" cy="125" r="120" transform="matrix(1 0 0 -1 374 280)" fill="#D9D9D9" stroke="#F6A800" stroke-width="10"/>
<circle cx="125" cy="125" r="120" transform="matrix(1 0 0 -1 600 968)" fill="#D9D9D9" stroke="#DD6108" stroke-width="10"/>
<circle cx="125" cy="125" r="120" transform="matrix(1 0 0 -1 150 968)" fill="#D9D9D9" stroke="#B1063A" stroke-width="10"/>
<path d="M492 202L507.039 201.997C508.138 201.997 509.237 201.874 510.305 201.631L535.872 195.815C542.394 194.331 547 188.645 547 182.126V138.506C547 133.449 544.201 128.762 539.694 126.273L518.64 114.641C511.247 110.556 504.189 113.406 498.827 119.885L467.69 108.062C459.551 104.971 450.371 108.852 447.142 116.799C443.899 124.781 447.923 133.842 456.153 136.968L473.094 140.929L452.898 138.99C444.132 138.99 437 145.948 437 154.5C437 163.052 444.132 170.01 452.898 170.01H471.726C470.937 175.575 473.594 180.887 478.245 183.794C475.383 192.826 482.341 202 492 202ZM492 191.819C486.595 191.819 486.603 184.065 492 184.065C493.899 184.065 495.438 182.546 495.438 180.672V179.218C495.438 177.344 493.899 175.825 492 175.825H485.984C480.579 175.825 480.587 168.071 485.984 168.071H492C493.899 168.071 495.438 166.552 495.438 164.678V163.224C495.438 161.35 493.899 159.831 492 159.831H452.898C445.501 159.831 445.513 149.169 452.898 149.169H492C493.899 149.169 495.438 147.65 495.438 145.776V143.31C495.438 142.624 495.227 141.954 494.834 141.389C494.44 140.824 493.883 140.389 493.234 140.143L459.857 127.465C453.078 124.891 456.971 114.894 463.987 117.559L499.769 131.15C500.444 131.406 501.185 131.446 501.885 131.262C502.585 131.079 503.208 130.683 503.666 130.129L508.342 124.479C509.592 122.967 511.854 122.557 513.603 123.523L534.657 135.155C535.91 135.847 536.688 137.131 536.688 138.506V182.126C536.688 183.926 535.4 185.477 533.556 185.896L507.989 191.712C507.678 191.783 507.359 191.819 507.039 191.819H492V191.819Z" fill="#F6A800"/>
<path d="M761.479 806.94V804.255C761.479 793.437 751.53 785.232 741.09 787.997C734.797 775.718 717.988 776.227 712.121 788.182C701.986 785.562 691.888 793.373 691.888 804.301V835.587C686.989 833.745 681.254 834.33 676.644 837.787C669.437 843.194 667.856 853.497 673.072 860.894L702.529 902.668C703.255 903.699 704.215 904.539 705.328 905.118C706.441 905.698 707.675 906 708.928 906H763.657C767.316 906 770.491 903.448 771.313 899.845L778.724 867.362C779.571 863.647 779.999 859.847 780 856.034V823.4C780 813.325 771.278 805.543 761.479 806.94ZM768.214 856.034C768.214 858.944 767.886 861.855 767.24 864.687L760.531 894.094H710.952L682.667 853.985C679.122 848.957 686.356 843.375 689.885 848.378L696.546 857.823C698.754 860.955 703.674 859.383 703.674 855.521V804.301C703.674 797.94 712.653 798.147 712.653 804.472V842.5C712.653 844.692 714.412 846.469 716.582 846.469H718.265C720.435 846.469 722.194 844.692 722.194 842.5V795.619C722.194 789.254 731.173 789.465 731.173 795.791V842.5C731.173 844.692 732.932 846.469 735.102 846.469H736.785C738.955 846.469 740.714 844.692 740.714 842.5V804.084C740.714 797.716 749.693 797.93 749.693 804.255V842.5C749.693 844.692 751.452 846.469 753.622 846.469H755.305C757.475 846.469 759.234 844.692 759.234 842.5V823.572C759.234 817.063 768.213 817.212 768.213 823.4V856.034H768.214Z" fill="#DD6108"/>
<path d="M307.842 805.083C303.029 797.819 293.639 796.024 286.613 800.028C280.28 793.285 269.609 793.365 263.338 800.023C253.206 794.233 239.982 801.106 239.561 813.053C229.635 810.73 220 818.143 220 828.306V840.51C220 847.526 223.068 854.215 228.418 858.861L249.41 877.092C250.323 877.885 250.078 878.286 250.078 884.143C250.078 887.93 253.156 891 256.953 891H311.094C314.891 891 317.969 887.93 317.969 884.143C317.969 879.104 317.751 877.555 318.824 875.064L328.027 853.709C329.336 850.671 330 847.458 330 844.158V819.635C330 808.312 318.331 800.636 307.842 805.083ZM319.688 844.158C319.689 846.046 319.303 847.914 318.553 849.647L309.35 871.002C308.226 873.61 307.656 876.367 307.656 879.198V880.714H260.391V878.51C260.391 875.002 258.857 871.658 256.182 869.335L235.189 851.104C232.09 848.412 230.312 844.551 230.312 840.51V828.306C230.312 821.19 241.484 821.119 241.484 828.451V837.286C241.484 837.776 241.59 838.26 241.793 838.706C241.997 839.152 242.294 839.55 242.665 839.871L244.168 841.177C244.666 841.61 245.278 841.89 245.93 841.985C246.583 842.079 247.25 841.985 247.85 841.712C248.45 841.44 248.959 841.001 249.316 840.447C249.673 839.894 249.863 839.25 249.863 838.592V813.612C249.863 806.52 261.035 806.385 261.035 813.757V819.49C261.035 821.383 262.574 822.918 264.473 822.918H265.977C267.875 822.918 269.414 821.383 269.414 819.49V810.673C269.414 803.573 280.586 803.457 280.586 810.818V819.49C280.586 821.383 282.125 822.918 284.023 822.918H285.527C287.426 822.918 288.965 821.383 288.965 819.49V813.612C288.965 806.534 300.137 806.373 300.137 813.757V819.489C300.137 821.383 301.676 822.918 303.574 822.918H305.078C306.977 822.918 308.516 821.383 308.516 819.489C308.516 812.387 319.688 812.287 319.688 819.634V844.158Z" fill="#B1063A"/>
<path d="M581.969 849C584.731 849.017 586.983 846.792 587 844.031C587.017 841.269 584.792 839.017 582.031 839L581.969 849ZM415.486 839.443C413.522 841.383 413.502 844.549 415.443 846.514L447.067 878.528C449.007 880.493 452.173 880.512 454.138 878.572C456.102 876.631 456.122 873.465 454.181 871.501L426.071 843.043L454.528 814.933C456.493 812.993 456.512 809.827 454.572 807.862C452.631 805.898 449.465 805.878 447.501 807.819L415.486 839.443ZM582 844L582.031 839L419.031 838L419 843L418.969 848L581.969 849L582 844Z" fill="#DD6108" fill-opacity="0.3"/>
<path d="M513.692 292.273C512.739 289.682 509.865 288.354 507.273 289.308C504.682 290.261 503.354 293.135 504.308 295.727L513.692 292.273ZM658.903 711.539C661.41 712.697 664.381 711.604 665.539 709.097L684.41 668.245C685.569 665.738 684.475 662.767 681.968 661.609C679.461 660.451 676.49 661.545 675.332 664.051L658.558 700.364L622.245 683.59C619.738 682.432 616.767 683.525 615.609 686.032C614.451 688.539 615.544 691.51 618.051 692.668L658.903 711.539ZM509 294L504.308 295.727L656.308 708.727L661 707L665.692 705.273L513.692 292.273L509 294Z" fill="#F6A800" fill-opacity="0.3"/>
<path d="M328.692 708.727C327.739 711.318 324.865 712.646 322.273 711.692C319.682 710.739 318.354 707.865 319.308 705.273L328.692 708.727ZM473.903 289.461C476.41 288.303 479.381 289.396 480.539 291.903L499.41 332.755C500.569 335.262 499.475 338.233 496.968 339.391C494.461 340.549 491.49 339.455 490.332 336.949L473.558 300.636L437.245 317.41C434.738 318.568 431.767 317.475 430.609 314.968C429.451 312.461 430.544 309.49 433.051 308.332L473.903 289.461ZM324 707L319.308 705.273L471.308 292.273L476 294L480.692 295.727L328.692 708.727L324 707Z" fill="#B1063A" fill-opacity="0.3"/>
<path d="M723.877 490.096C726.033 488.371 729.179 488.72 730.904 490.877C732.629 493.033 732.28 496.179 730.123 497.904L723.877 490.096ZM391.448 766.969C388.703 766.664 386.726 764.192 387.031 761.448L392 716.723C392.305 713.979 394.777 712.001 397.522 712.306C400.266 712.611 402.244 715.083 401.939 717.827L397.522 757.583L437.277 762C440.021 762.305 441.999 764.777 441.694 767.522C441.389 770.266 438.917 772.244 436.173 771.939L391.448 766.969ZM727 494L730.123 497.904L395.123 765.904L392 762L388.877 758.096L723.877 490.096L727 494Z" fill="#007A9E"/>
<path d="M731.481 342.552C733.442 344.495 736.608 344.481 738.552 342.519C740.495 340.558 740.481 337.392 738.519 335.448L731.481 342.552ZM624.977 225C622.216 225.013 619.987 227.261 620 230.023L620.206 275.022C620.218 277.784 622.467 280.012 625.228 279.999C627.99 279.987 630.218 277.738 630.205 274.977L630.023 234.977L670.022 234.794C672.784 234.782 675.012 232.533 674.999 229.772C674.987 227.01 672.738 224.782 669.977 224.795L624.977 225ZM735 339L738.519 335.448L628.519 226.448L625 230L621.481 233.552L731.481 342.552L735 339Z" fill="#007A9E"/>
<path d="M366.481 221.448C368.442 219.505 371.608 219.519 373.552 221.481C375.495 223.442 375.481 226.608 373.519 228.552L366.481 221.448ZM259.977 339C257.216 338.987 254.987 336.739 255 333.977L255.206 288.978C255.218 286.216 257.467 283.988 260.228 284.001C262.99 284.013 265.218 286.262 265.205 289.023L265.023 329.023L305.022 329.206C307.784 329.218 310.012 331.467 309.999 334.228C309.987 336.99 307.738 339.218 304.977 339.205L259.977 339ZM370 225L373.519 228.552L263.519 337.552L260 334L256.481 330.448L366.481 221.448L370 225Z" fill="#F6A800"/>
<path d="M767.32 716.241C766.348 718.826 767.656 721.709 770.241 722.68C772.826 723.652 775.709 722.344 776.68 719.759L767.32 716.241ZM838.553 550.934C837.412 548.419 834.449 547.306 831.934 548.447L790.955 567.041C788.44 568.182 787.327 571.145 788.468 573.66C789.609 576.175 792.572 577.288 795.087 576.147L831.513 559.619L848.041 596.045C849.182 598.56 852.145 599.673 854.66 598.532C857.175 597.391 858.288 594.428 857.147 591.913L838.553 550.934ZM772 718L776.68 719.759L838.68 554.759L834 553L829.32 551.241L767.32 716.241L772 718Z" fill="#DD6108"/>
<path d="M150.85 548.355C148.285 547.333 145.377 548.584 144.355 551.15L127.703 592.956C126.682 595.521 127.933 598.429 130.498 599.451C133.064 600.473 135.972 599.221 136.994 596.656L151.795 559.495L188.956 574.297C191.521 575.318 194.429 574.067 195.451 571.502C196.473 568.936 195.221 566.028 192.656 565.006L150.85 548.355ZM215.407 719.976C216.499 722.513 219.44 723.684 221.976 722.593C224.513 721.501 225.684 718.56 224.593 716.024L215.407 719.976ZM149 553L144.407 554.976L215.407 719.976L220 718L224.593 716.024L153.593 551.024L149 553Z" fill="#B1063A"/>
<circle cx="135" cy="410" r="120" fill="#D9D9D9" stroke="#89B030" stroke-width="10"/>
<circle cx="859" cy="411" r="120" fill="#D9D9D9" stroke="#007A9E" stroke-width="10"/>
<g clip-path="url(#clip0_9_11)">
<path d="M911.622 380.187C907.418 373.356 900.512 372.441 897.246 372.595C894.186 361.579 883.804 360.871 881.91 360.871C878.231 360.882 874.668 362.157 871.817 364.483C868.966 366.808 867 370.042 866.249 373.643L865.242 378.556L862.275 367.021C860.303 359.353 852.213 353.135 842.837 355.515C839.129 356.469 835.884 358.72 833.692 361.859C831.5 364.999 830.505 368.82 830.887 372.63C828.514 372.817 826.213 373.532 824.152 374.723C822.091 375.913 820.322 377.55 818.974 379.512C817.627 381.474 816.734 383.712 816.363 386.063C815.992 388.415 816.151 390.819 816.828 393.101L822.109 410.921C813.819 409.285 808.495 414.429 807.342 415.657C805.903 417.186 804.78 418.983 804.036 420.945C803.293 422.908 802.943 424.998 803.008 427.096C803.072 429.193 803.549 431.258 804.412 433.171C805.275 435.085 806.506 436.809 808.035 438.246L827.843 456.886C834.058 462.751 842.284 466.012 850.83 466H874.126C880.359 466.017 886.415 463.923 891.306 460.06C896.198 456.197 899.638 450.791 901.066 444.724L913.558 392.267C914.051 390.226 914.133 388.106 913.801 386.033C913.469 383.959 912.728 381.972 911.622 380.187ZM903.436 389.857L890.943 442.315C890.052 446.102 887.904 449.476 884.851 451.888C881.797 454.299 878.017 455.606 874.126 455.595H850.83C844.936 455.604 839.262 453.354 834.975 449.309L815.166 430.668C809.795 425.617 817.441 417.466 822.814 422.541L833.898 432.97C835.074 434.078 836.821 433.126 836.821 431.707C836.821 426.558 836.078 421.435 834.614 416.498L826.807 390.149C824.697 383.02 835.413 379.901 837.513 386.978L844.309 409.911C845.521 414.009 851.632 412.234 850.588 408.175L841.387 372.395C839.543 365.218 850.369 362.499 852.198 369.612L862.458 409.51C863.418 413.249 868.78 413.088 869.549 409.336L876.442 375.739C877.918 368.561 888.911 370.512 887.307 378.332L881.118 408.503C880.311 412.429 886.249 413.843 887.2 409.851L892.577 387.272C894.304 380.043 905.142 382.706 903.436 389.857Z" fill="#007A9E"/>
</g>
<path d="M301 406C298.239 406 296 408.239 296 411C296 413.761 298.239 416 301 416L301 406ZM704.536 414.536C706.488 412.583 706.488 409.417 704.536 407.464L672.716 375.645C670.763 373.692 667.597 373.692 665.645 375.645C663.692 377.597 663.692 380.763 665.645 382.716L693.929 411L665.645 439.284C663.692 441.237 663.692 444.403 665.645 446.355C667.597 448.308 670.763 448.308 672.716 446.355L704.536 414.536ZM301 411L301 416L701 416L701 411L701 406L301 406L301 411Z" fill="#89B030"/>
<path d="M268.123 490.096C265.967 488.371 262.821 488.72 261.096 490.877C259.371 493.033 259.72 496.179 261.877 497.904L268.123 490.096ZM600.552 766.969C603.297 766.664 605.274 764.192 604.969 761.448L600 716.723C599.695 713.979 597.223 712.001 594.478 712.306C591.734 712.611 589.756 715.083 590.061 717.827L594.478 757.583L554.723 762C551.979 762.305 550.001 764.777 550.306 767.522C550.611 770.266 553.083 772.244 555.827 771.939L600.552 766.969ZM265 494L261.877 497.904L596.877 765.904L600 762L603.123 758.096L268.123 490.096L265 494Z" fill="#89B030"/>
<path d="M180.812 417.054L152.861 374.229C150.316 370.328 146.003 368 141.324 368H85.1944C79.2974 368 74.5 372.766 74.5 378.625V380.143C74.5 388.512 81.3536 395.321 89.7778 395.321H127.216L124.513 402.745C124.513 402.745 103.446 394.273 102.797 394.273C93.5461 394.273 85.9919 401.763 85.9919 410.969C85.9919 416.828 90.5753 419.627 96.6864 421.594L121.809 430.067L141.722 439.419V453H184.5V429.441C184.5 425.034 183.225 420.751 180.812 417.054ZM175.333 443.893H150.889V439.419C150.889 435.634 148.595 432.302 145.044 430.931L121.809 420.96L96.6864 412.487C95.844 412.487 95.1586 411.806 95.1586 410.969C95.1586 406.785 98.5854 403.38 102.797 403.38L124.513 410.969C128.288 410.969 130.931 411.182 132.278 407.678L136.967 395.482C138.685 391.013 135.358 386.214 130.545 386.214H89.7778C86.4081 386.214 83.6667 383.491 83.6667 380.143V378.625C83.6667 377.788 84.3521 377.107 85.1944 377.107H141.324C142.884 377.107 144.321 377.883 145.17 379.183L173.12 422.009C174.566 424.221 175.335 426.803 175.333 429.441V443.893Z" fill="#89B030"/>
<defs>
<clipPath id="clip0_9_11">
<rect width="111" height="111" fill="white" transform="translate(803 355)"/>
</clipPath>
</defs>
</svg>
